<svg width="14" height="13" viewBox="0 0 14 13" fill="none" xmlns="http://www.w3.org/2000/svg">
<path d="M11.5369 5.43401C12.147 5.01763 12.5794 4.40866 12.7845 3.7266C12.8475 3.81278 12.9071 3.90225 12.9634 3.99516C13.3466 4.62834 13.5525 5.39262 13.5525 6.30415C13.5525 7.70344 13.0242 8.68228 12.4865 9.30961C12.2198 9.62075 11.9525 9.84372 11.7496 9.99026C11.7143 10.0158 11.6808 10.0391 11.6495 10.0601V11.2201C11.6495 11.8332 11.1525 12.3302 10.5395 12.3302H9.74656C9.22107 12.3302 8.79508 11.9042 8.79508 11.3787H7.52645C7.52645 11.9042 7.10046 12.3302 6.57497 12.3302H5.78208C5.16901 12.3302 4.67202 11.8332 4.67202 11.2201V10.7871C4.58445 10.7576 4.48509 10.721 4.37753 10.676C3.99943 10.5177 3.5046 10.2497 3.06699 9.81214C2.56967 9.31481 2.23658 8.79591 2.04918 8.46043C1.99388 8.36143 1.91127 8.30857 1.84056 8.29678C1.27825 8.20307 0.866119 7.71656 0.866119 7.14649V6.03459C0.866119 5.50004 1.25258 5.04384 1.77986 4.95596C1.83499 4.94677 1.91623 4.89202 1.95493 4.77608C2.07694 4.41058 2.31369 3.86663 2.74983 3.43049C3.10658 3.07374 3.50163 2.81167 3.80167 2.64022C3.88818 2.59079 3.96782 2.54831 4.03771 2.51273V0.703865C4.03771 0.108941 4.75488 -0.13526 5.14133 0.249556C5.35094 0.458281 5.65525 0.736641 5.99211 0.969102C6.32832 1.20111 6.64961 1.354 6.91449 1.38771C6.60716 1.99821 6.4975 2.70482 6.62911 3.40162C6.74384 4.00906 7.20867 4.39288 7.64534 4.57371L9.98955 5.54448C10.4262 5.72531 11.0263 5.78249 11.5369 5.43401ZM4.67202 5.35267C5.02235 5.35267 5.30634 5.06867 5.30634 4.71835C5.30634 4.36802 5.02235 4.08403 4.67202 4.08403C4.3217 4.08403 4.03771 4.36802 4.03771 4.71835C4.03771 5.06867 4.3217 5.35267 4.67202 5.35267ZM11.1793 4.91008C11.7834 4.49781 12.1696 3.84924 12.2626 3.14608C12.2626 3.14607 12.2626 3.14608 12.2626 3.14608C12.3192 2.7187 12.2675 2.27114 12.0906 1.84423C11.5542 0.549647 10.07 -0.065012 8.77539 0.47135C7.64607 0.93924 7.03416 2.12847 7.25239 3.28386C7.268 3.36653 7.29611 3.4438 7.33435 3.51523C7.36601 3.57437 7.40462 3.62951 7.44883 3.68037C7.56477 3.81375 7.71924 3.91776 7.88803 3.98765L10.2322 4.95843C10.5431 5.08716 10.9014 5.09976 11.1793 4.91008Z" fill="#5D7285"/>
</svg>
