<svg width="19" height="14" viewBox="0 0 19 14" fill="none" xmlns="http://www.w3.org/2000/svg">
<path d="M9.45362 9.10046C12.1081 9.10046 14.3747 9.52129 14.3747 11.2053C14.3747 12.8887 12.1227 13.3249 9.45362 13.3249C6.7991 13.3249 4.53251 12.904 4.53251 11.2207C4.53251 9.53662 6.78455 9.10046 9.45362 9.10046ZM13.6979 8.08641C14.7127 8.0676 15.8037 8.20695 16.2069 8.30588C17.061 8.4738 17.6228 8.8166 17.8556 9.31478C18.0523 9.72377 18.0523 10.1983 17.8556 10.6066C17.4995 11.3792 16.3517 11.6273 15.9056 11.6914C15.8134 11.7053 15.7393 11.6252 15.749 11.5325C15.9769 9.39142 14.1641 8.37626 13.6951 8.14284C13.675 8.13239 13.6708 8.11637 13.6729 8.10661C13.6743 8.09965 13.6826 8.0885 13.6979 8.08641ZM5.09765 8.08496L5.28875 8.08669C5.30399 8.08878 5.31161 8.09992 5.313 8.1062C5.31508 8.11665 5.31092 8.13197 5.29152 8.14312C4.82186 8.37653 3.009 9.3917 3.23691 11.5321C3.2466 11.6255 3.17318 11.7049 3.08104 11.6917C2.63493 11.6276 1.48709 11.3795 1.13103 10.6068C0.933599 10.1978 0.933599 9.72405 1.13103 9.31506C1.36378 8.81688 1.92489 8.47408 2.77902 8.30547C3.18287 8.20722 4.27322 8.06787 5.28875 8.08669L5.09765 8.08496ZM9.45362 0.946533C11.2609 0.946533 12.7101 2.40274 12.7101 4.22126C12.7101 6.03908 11.2609 7.49668 9.45362 7.49668C7.6463 7.49668 6.19712 6.03908 6.19712 4.22126C6.19712 2.40274 7.6463 0.946533 9.45362 0.946533ZM13.8745 1.49265C15.6202 1.49265 16.9911 3.14464 16.5242 4.98476C16.209 6.22358 15.0681 7.04644 13.7969 7.01299C13.6695 7.00951 13.5441 6.99767 13.4229 6.97676C13.3349 6.96143 13.2905 6.8618 13.3404 6.78794C13.8253 6.07029 14.1017 5.20702 14.1017 4.28034C14.1017 3.31325 13.7997 2.41166 13.2753 1.67241C13.2587 1.64941 13.2462 1.61388 13.2628 1.5874C13.2767 1.5658 13.3023 1.55466 13.3266 1.54908C13.5032 1.51285 13.6847 1.49265 13.8745 1.49265ZM5.11107 1.49258C5.30088 1.49258 5.48237 1.51278 5.65971 1.54901C5.68326 1.55459 5.70958 1.56643 5.72344 1.58733C5.73937 1.61381 5.72759 1.64934 5.71097 1.67234C5.18658 2.41159 4.88455 3.31318 4.88455 4.28027C4.88455 5.20695 5.16095 6.07022 5.64585 6.78787C5.69573 6.86173 5.65139 6.96137 5.56342 6.97669C5.4415 6.99829 5.31681 7.00944 5.18935 7.01292C3.9182 7.04637 2.77728 6.22351 2.46209 4.98469C1.99451 3.14457 3.36541 1.49258 5.11107 1.49258Z" fill="#5D7285"/>
</svg>
