<svg width="14" height="19" viewBox="0 0 14 19" fill="none" xmlns="http://www.w3.org/2000/svg">
<path d="M6.66733 5.49154C5.23685 5.49154 4.07721 6.65118 4.07721 8.08166C4.07721 9.51215 5.23685 10.6718 6.66733 10.6718C8.09782 10.6718 9.25746 9.51215 9.25746 8.08166C9.25746 6.65118 8.09782 5.49154 6.66733 5.49154ZM4.22529 11.4118C3.58878 11.4118 2.89611 11.8576 2.87785 12.6491C2.86506 13.2034 2.96426 14.0202 3.53987 14.7032C4.12936 15.4027 5.12377 15.852 6.66733 15.852C8.21089 15.852 9.2053 15.4027 9.79478 14.7032C10.3704 14.0202 10.4696 13.2034 10.4568 12.6491C10.4385 11.8576 9.74587 11.4118 9.10937 11.4118H4.22529ZM10.2909 1.79135H11.2926C12.4165 1.79135 13.3277 2.7025 13.3277 3.82645V16.0371C13.3277 17.161 12.4165 18.0722 11.2926 18.0722H2.0421C0.91815 18.0722 0.00700378 17.161 0.00700378 16.0371V3.82645C0.00700378 2.7025 0.918149 1.79135 2.0421 1.79135H3.04376C3.28535 0.937164 4.07071 0.311279 5.00225 0.311279H8.33242C9.26396 0.311279 10.0493 0.937164 10.2909 1.79135ZM3.04376 2.90141H2.0421C1.53122 2.90141 1.11706 3.31556 1.11706 3.82645V16.0371C1.11706 16.5479 1.53122 16.9621 2.0421 16.9621H11.2926C11.8035 16.9621 12.2176 16.5479 12.2176 16.0371V3.82645C12.2176 3.31556 11.8035 2.90141 11.2926 2.90141H10.2909C10.0493 3.7556 9.26396 4.38148 8.33242 4.38148H5.00225C4.07071 4.38148 3.28535 3.7556 3.04376 2.90141ZM4.07721 2.34638C4.07721 2.85727 4.49136 3.27143 5.00225 3.27143H8.33242C8.84331 3.27143 9.25746 2.85727 9.25746 2.34638C9.25746 1.83549 8.84331 1.42133 8.33242 1.42133H5.00225C4.49136 1.42133 4.07721 1.83549 4.07721 2.34638Z" fill="#5D7285"/>
</svg>
