<?xml version="1.0" encoding="UTF-8"?>
<svg xmlns="http://www.w3.org/2000/svg" xmlns:xlink="http://www.w3.org/1999/xlink" width="15px" height="15px" viewBox="0 0 15 15" version="1.1">
<g id="surface1">
<path style=" stroke:none;fill-rule:nonzero;fill:rgb(36.470588%,44.705882%,52.156863%);fill-opacity:1;" d="M 5.277344 13.738281 L 5.277344 11.519531 C 5.277344 10.953125 5.769531 10.496094 6.378906 10.496094 L 8.601562 10.496094 C 8.894531 10.496094 9.171875 10.601562 9.378906 10.792969 C 9.585938 10.988281 9.703125 11.246094 9.703125 11.519531 L 9.703125 13.738281 C 9.699219 13.972656 9.800781 14.199219 9.976562 14.367188 C 10.15625 14.53125 10.398438 14.628906 10.652344 14.628906 L 12.167969 14.628906 C 12.878906 14.628906 13.558594 14.367188 14.058594 13.902344 C 14.5625 13.4375 14.84375 12.804688 14.84375 12.144531 L 14.84375 5.828125 C 14.84375 5.292969 14.589844 4.789062 14.148438 4.449219 L 8.988281 0.613281 C 8.089844 -0.0625 6.804688 -0.0390625 5.933594 0.664062 L 0.890625 4.449219 C 0.433594 4.777344 0.15625 5.285156 0.144531 5.828125 L 0.144531 12.136719 C 0.144531 13.511719 1.339844 14.628906 2.816406 14.628906 L 4.300781 14.628906 C 4.824219 14.628906 5.25 14.234375 5.253906 13.742188 Z M 5.277344 13.738281 "/>
</g>
</svg>
